<svg xmlns="http://www.w3.org/2000/svg" viewBox="0 0 100 100" id="Garden"><path style="marker:none" d="M32.5 969.029c-1.054 0-1.25 2.331-1.25 4.166v8.334c0 8.463 8.333 12.76 16.667 12.5v33.333c-4.167-8.333-16.667-20.833-29.167-16.667 0 0 10.417 25 31.25 25s31.25-25 31.25-25c-12.5-4.166-25 8.334-29.167 16.667v-33.333c8.334.258 16.667-4.037 16.667-12.5v-8.334c0-1.835-.195-4.166-1.25-4.166-.804 0-1.773.94-2.917 2.083l-6.25 6.25-6.25-7.031c-.652-.734-1.029-1.302-2.083-1.302-1.054 0-1.431.568-2.083 1.302l-6.25 7.031-6.25-6.25c-1.144-1.143-2.113-2.083-2.917-2.083z" color="#000" overflow="visible" transform="translate(0 -952.362)" fill="#d8a353" class="color000000 svgShape"></path></svg>